<svg width="17" height="14" viewBox="0 0 17 14" fill="none" xmlns="http://www.w3.org/2000/svg">
<path d="M12.1194 4.26249C11.8269 4.09532 11.4507 4.09532 11.1164 4.26249L8.77612 5.64159L7.18806 6.5192L4.88955 7.89831C4.59701 8.06547 4.2209 8.06547 3.88657 7.89831L2.08955 6.81174C1.79701 6.64458 1.58806 6.31025 1.58806 5.93413V3.84458C1.58806 3.51025 1.75522 3.17592 2.08955 2.96696L3.88657 1.92219C4.1791 1.75502 4.55522 1.75502 4.88955 1.92219L6.68657 3.00875C6.9791 3.17592 7.18806 3.51025 7.18806 3.88637V5.26547L8.77612 4.34607V2.92517C8.77612 2.59084 8.60895 2.25652 8.27463 2.04756L4.93134 0.083381C4.63881 -0.0837832 4.26269 -0.0837832 3.92836 0.083381L0.501493 2.08935C0.167164 2.25652 0 2.59084 0 2.92517V6.85353C0 7.18786 0.167164 7.52219 0.501493 7.73114L3.88657 9.69532C4.1791 9.86249 4.55522 9.86249 4.88955 9.69532L7.18806 8.35801L8.77612 7.4386L11.0746 6.10129C11.3672 5.93413 11.7433 5.93413 12.0776 6.10129L13.8746 7.14607C14.1672 7.31323 14.3761 7.64756 14.3761 8.02368V10.1132C14.3761 10.4476 14.209 10.7819 13.8746 10.9908L12.1194 12.0356C11.8269 12.2028 11.4507 12.2028 11.1164 12.0356L9.3194 10.9908C9.02686 10.8237 8.81791 10.4894 8.81791 10.1132V8.77592L7.22985 9.69532V11.0744C7.22985 11.4088 7.39701 11.7431 7.73134 11.952L11.1164 13.9162C11.409 14.0834 11.7851 14.0834 12.1194 13.9162L15.5045 11.952C15.797 11.7849 16.006 11.4505 16.006 11.0744V7.10428C16.006 6.76995 15.8388 6.43562 15.5045 6.22666L12.1194 4.26249Z" fill="white"/>
</svg>
